<?xml version="1.0" standalone="no"?>
<!DOCTYPE svg PUBLIC "-//W3C//DTD SVG 20010904//EN"
 "http://www.w3.org/TR/2001/REC-SVG-20010904/DTD/svg10.dtd">
<svg version="1.0" xmlns="http://www.w3.org/2000/svg"
 width="512.000000pt" height="512.000000pt" viewBox="0 0 512.000000 512.000000"
 preserveAspectRatio="xMidYMid meet">

<g transform="translate(0.000000,512.000000) scale(0.100000,-0.100000)"
fill="#000000" stroke="none">
<path d="M115 5100 c-10 -11 -24 -20 -30 -20 -7 0 -16 -7 -19 -15 -3 -10 13
-3 42 17 26 17 41 25 34 15 -8 -9 -29 -25 -47 -36 -25 -14 -36 -16 -45 -8 -10
9 -11 9 -5 -2 6 -11 4 -13 -8 -8 -11 4 -14 2 -10 -9 4 -10 0 -12 -11 -8 -13 5
-16 -2 -16 -46 0 -28 3 -50 8 -48 55 27 71 36 97 54 17 12 46 29 65 38 19 9
54 30 78 47 24 17 45 29 48 26 2 -2 -19 -29 -48 -59 -54 -56 -115 -98 -200
-139 -45 -22 -48 -25 -48 -62 0 -35 2 -38 23 -31 37 11 139 55 201 86 l58 30
-20 -29 c-43 -59 -92 -96 -173 -129 l-84 -33 -3 -45 -3 -44 63 19 c35 10 65
19 68 19 3 0 -25 -61 -62 -136 l-68 -135 0 -308 c0 -208 4 -311 11 -318 8 -8
8 -13 0 -17 -6 -4 -11 -31 -10 -59 l1 -52 10 45 c18 75 21 26 4 -56 -21 -98
-23 -609 -3 -598 9 5 9 4 0 -7 -16 -16 -18 -173 -3 -164 6 3 10 1 10 -4 0 -6
-4 -11 -10 -11 -7 0 -10 -225 -10 -656 l0 -655 21 6 c12 4 50 15 86 26 88 25
67 1 -32 -37 -43 -16 -75 -34 -75 -42 0 -9 6 -12 18 -8 16 6 16 5 0 -8 -12 -8
-18 -27 -18 -50 l0 -38 38 23 c20 13 80 53 132 90 109 77 259 169 274 169 17
0 -54 -69 -134 -129 -71 -54 -207 -139 -278 -175 -31 -16 -32 -19 -32 -76 0
-43 4 -60 13 -60 8 0 49 19 93 43 44 23 95 49 114 57 29 11 64 29 185 98 19
11 -70 -90 -108 -123 -46 -40 -148 -94 -234 -125 l-63 -23 0 -379 0 -379 38
28 c113 82 141 106 136 114 -3 5 -2 9 3 8 12 -3 64 12 98 28 23 12 12 -4 -45
-63 -41 -43 -59 -64 -40 -46 20 17 39 32 43 32 8 0 -11 -42 -23 -50 -4 -3 -15
-20 -24 -38 -12 -23 -13 -32 -4 -30 7 2 15 5 18 8 20 20 52 43 47 33 -4 -6 -3
-14 3 -18 15 -9 5 -47 -29 -118 -21 -41 -24 -54 -11 -37 11 14 30 47 42 73 12
27 24 44 26 39 2 -6 -13 -43 -32 -82 -20 -40 -33 -76 -30 -81 3 -5 0 -9 -6 -9
-6 0 -8 -4 -5 -10 3 -5 1 -10 -6 -10 -7 0 -9 -3 -6 -7 4 -3 -3 -21 -14 -40
-12 -19 -19 -37 -15 -40 3 -4 6 0 6 7 0 7 2 11 5 9 2 -3 -2 -23 -10 -44 -23
-64 -22 -65 50 -65 l65 0 30 60 c27 53 119 272 156 370 7 19 14 31 14 25 1 -5
5 -1 10 10 17 41 11 -28 -10 -103 -19 -67 -100 -238 -152 -320 -11 -18 -18
-35 -15 -38 2 -3 26 31 52 76 26 44 50 78 55 75 11 -7 33 51 25 65 -3 6 -1 9
5 8 7 -2 18 13 25 32 l13 35 0 -50 c0 -28 12 -85 27 -130 35 -103 42 -115 64
-115 17 0 16 6 -12 78 -26 66 -31 92 -33 182 -2 74 0 92 5 60 5 -25 9 -38 11
-30 1 8 6 2 11 -15 6 -22 6 -15 3 22 -6 53 2 113 14 113 4 0 21 -55 39 -122
17 -68 45 -160 63 -205 l32 -83 214 0 c118 0 214 2 214 4 0 2 -16 38 -35 81
-20 43 -43 104 -52 136 -14 50 -18 57 -31 46 -13 -10 -14 -9 -4 9 6 11 8 39 5
62 l-6 42 -28 -60 c-37 -78 -45 -77 -13 1 14 34 23 64 20 67 -3 2 -10 -7 -15
-22 -6 -14 -13 -26 -15 -26 -7 0 4 32 16 47 6 7 7 25 4 40 -3 15 -1 35 5 43 8
11 9 8 4 -15 -8 -38 0 -30 21 20 15 37 15 38 -2 25 -16 -14 -17 -13 -10 5 5
11 9 26 9 32 0 9 4 10 14 2 9 -8 13 -8 13 -1 0 6 -4 13 -9 16 -9 6 3 64 32
145 9 24 11 39 6 34 -9 -9 -25 -47 -68 -166 -10 -26 -23 -53 -29 -59 -12 -12
-10 -14 -46 121 -14 51 -28 96 -31 99 -3 3 -19 -4 -35 -16 -43 -32 -45 -27 -3
11 34 32 36 37 37 105 2 77 4 77 -59 27 -78 -62 -319 -194 -331 -182 -5 4 104
68 179 106 15 8 26 16 23 18 -2 2 -39 -14 -81 -36 -43 -23 -80 -41 -82 -41
-13 0 30 29 83 57 34 17 75 39 90 48 24 14 25 14 10 1 -35 -29 0 -17 44 15 23
17 39 26 36 20 -4 -6 -4 -11 -1 -11 9 0 92 66 142 114 24 22 43 34 43 27 0 -6
4 -9 10 -6 6 4 7 -1 3 -11 -5 -12 -3 -15 6 -9 8 4 5 -5 -5 -21 -10 -16 -12
-23 -4 -16 17 14 34 16 25 2 -3 -6 1 -7 9 -4 9 3 16 1 16 -5 0 -6 5 -11 11
-11 5 0 7 5 4 10 -3 6 -1 10 4 10 8 0 9 -30 6 -92 -7 -113 4 -108 40 17 15 49
28 91 30 94 3 2 7 -14 11 -35 5 -32 10 -39 30 -40 13 -1 22 2 19 6 -3 5 -1 11
4 15 5 3 14 -2 19 -10 7 -13 10 -12 20 11 10 21 15 24 27 14 11 -9 15 -9 15
-1 0 6 6 10 13 8 6 -1 11 4 9 11 -1 7 5 15 13 18 8 4 15 12 15 19 0 7 6 16 13
18 9 4 9 6 0 6 -9 1 -10 8 -3 27 6 15 6 23 1 19 -5 -3 -12 -1 -15 4 -3 5 1 12
10 15 12 5 14 10 5 20 -6 7 -8 16 -4 20 4 3 6 40 5 82 -1 57 1 73 11 68 7 -5
5 0 -3 11 -10 12 -11 19 -4 22 6 2 10 16 8 31 -2 15 -5 52 -8 82 -3 30 -8 75
-12 100 -5 40 1 32 54 -75 157 -321 329 -573 731 -1074 178 -222 225 -286 235
-318 7 -21 13 -23 82 -23 l74 0 33 47 c95 137 225 283 556 618 436 441 531
551 710 825 35 52 68 98 74 102 16 10 28 10 24 0 -3 -14 45 -72 54 -66 9 5 10
4 14 -36 1 -13 8 -26 14 -28 6 -2 9 -8 5 -13 -3 -5 0 -9 6 -9 6 0 8 -5 5 -10
-3 -6 -1 -10 5 -10 6 0 9 -4 5 -9 -3 -5 -1 -12 5 -16 7 -4 7 -12 0 -26 -7 -12
-7 -19 -1 -19 6 0 8 -6 5 -13 -3 -8 2 -20 10 -27 9 -7 13 -16 10 -21 -3 -5 1
-9 9 -9 8 0 14 -8 13 -17 0 -10 4 -17 10 -16 11 2 10 -10 -7 -77 -6 -22 -73
-134 -209 -350 -68 -107 -202 -332 -298 -500 -96 -168 -176 -308 -179 -312 -2
-5 90 -8 206 -8 l209 0 121 227 c119 225 218 380 239 376 7 -2 9 4 5 14 -4 10
-2 14 5 10 10 -7 52 87 52 115 0 8 3 9 10 2 14 -14 40 -154 40 -215 0 -30 4
-49 12 -49 8 0 9 27 6 98 l-6 97 19 -55 19 -55 -6 70 c-15 167 -19 235 -14
256 3 13 11 -29 18 -93 17 -152 33 -204 26 -83 -6 100 6 99 25 -4 7 -35 17
-71 21 -80 34 -60 90 -372 96 -531 1 -47 3 -88 3 -92 1 -11 41 -10 41 0 0 5
-4 33 -10 63 -5 30 -16 109 -23 177 -11 104 -11 122 1 122 10 0 13 -8 10 -25
-3 -13 -1 -22 3 -19 5 3 11 -13 15 -35 5 -30 9 -37 18 -29 7 7 11 23 9 37 -1
14 -4 49 -7 76 l-4 50 19 -35 c10 -19 19 -57 20 -85 2 -66 12 -111 24 -107 6
1 10 20 9 42 -1 22 0 40 2 40 2 0 13 -22 25 -50 12 -27 25 -47 30 -44 5 3 6
-1 4 -8 -3 -8 2 -22 11 -33 8 -11 13 -15 10 -9 -3 6 1 11 9 11 10 0 12 -4 5
-12 -7 -8 -1 -32 18 -74 25 -58 29 -61 59 -59 37 2 37 7 -3 116 -25 67 -51
174 -64 262 -4 30 -19 88 -33 127 -14 40 -22 73 -18 73 5 0 12 -15 15 -32 4
-18 14 -42 23 -53 15 -19 15 -19 9 5 -11 38 -14 113 -4 98 12 -20 10 0 -11 87
-20 84 -21 118 -1 44 10 -38 36 -111 82 -232 6 -15 12 -26 13 -25 2 2 -19 70
-46 152 -27 82 -47 151 -45 153 4 4 35 -68 57 -129 7 -21 17 -38 22 -38 4 0 6
-4 3 -9 -3 -5 1 -14 9 -21 8 -7 15 -18 15 -24 0 -6 -5 -4 -10 4 -12 18 -12 2
0 -25 6 -14 9 -15 10 -5 0 8 7 0 15 -19 8 -18 13 -37 10 -42 -3 -4 9 -41 26
-81 17 -40 38 -89 45 -108 8 -22 13 -28 14 -15 0 12 17 -9 43 -53 23 -39 48
-72 55 -72 10 0 10 4 0 22 -7 12 -19 28 -26 36 -7 7 -10 18 -7 23 4 5 2 9 -2
9 -5 0 -14 12 -20 28 -7 15 -25 57 -41 94 -22 50 -27 70 -18 79 8 9 8 10 -3 4
-11 -6 -13 -4 -8 9 7 18 -39 146 -57 158 -6 4 -8 8 -4 8 3 0 -9 44 -28 98 -51
147 -89 392 -61 392 39 0 223 -182 299 -295 33 -49 62 -92 64 -94 2 -2 4 127
4 287 l-1 291 -44 83 c-25 46 -45 86 -45 89 0 4 20 -14 45 -39 l45 -45 0 365
0 364 -45 93 c-25 51 -67 129 -93 174 -56 95 -63 111 -68 152 -4 26 2 21 47
-40 63 -88 73 -98 64 -65 -5 19 -4 21 4 10 6 -8 8 -22 5 -32 -2 -9 0 -19 6
-23 5 -3 10 0 10 7 1 7 15 -14 33 -47 l32 -60 3 190 c5 331 -3 859 -12 879 -7
14 -6 17 2 12 9 -5 12 35 11 154 0 169 -3 183 -48 227 -13 13 -20 23 -16 23 5
0 -34 40 -84 90 -51 49 -98 87 -104 83 -5 -3 -7 -1 -3 5 3 6 -3 13 -14 17 -11
3 -20 11 -20 16 0 5 -6 9 -13 9 -7 0 -26 13 -43 29 -16 15 -45 39 -64 52 -48
33 -207 181 -245 229 -54 69 -111 176 -60 115 14 -16 25 -36 25 -42 0 -7 4
-13 9 -13 5 0 22 -20 38 -45 15 -25 33 -43 40 -41 7 3 40 -22 75 -55 93 -89
239 -211 317 -264 23 -16 81 -69 127 -118 l84 -90 0 56 c0 52 -28 126 -42 112
-2 -3 -27 16 -54 41 -49 47 -33 42 18 -5 20 -17 28 -20 28 -10 0 8 11 1 25
-16 l24 -30 1 61 c0 52 -4 64 -25 84 -13 12 -22 27 -19 31 3 5 -11 36 -30 69
-39 66 -43 79 -23 61 8 -6 16 -9 18 -6 3 2 20 -19 39 -47 l35 -51 3 67 c2 54
-1 74 -18 102 l-22 34 21 0 c20 0 21 6 21 83 0 61 -5 89 -18 108 -44 68 -90
129 -136 183 -28 33 -69 83 -91 111 -22 29 -91 118 -153 199 l-113 146 -191 0
c-151 0 -188 -3 -181 -12 22 -28 83 -151 64 -128 -11 14 -28 40 -36 58 -10 19
-21 30 -27 26 -6 -4 -8 -3 -5 3 3 5 -1 19 -9 31 -13 19 -25 22 -90 22 l-75 0
53 -102 c29 -57 50 -103 48 -103 -3 0 5 -14 18 -32 27 -39 29 -57 2 -23 l-21
25 12 -30 c7 -16 30 -68 51 -113 21 -46 38 -89 38 -95 0 -7 7 -21 15 -31 21
-28 18 -38 -6 -24 -26 16 -62 87 -139 272 -33 81 -74 171 -91 201 l-31 55
-154 0 -154 0 45 -90 c45 -89 122 -307 112 -316 -3 -3 -19 2 -36 10 -16 9 -47
18 -68 21 -36 5 -37 5 -18 -11 19 -15 19 -16 -13 -9 -18 4 -46 13 -62 22 -21
10 -35 12 -43 5 -7 -5 -30 -12 -52 -15 -22 -3 -65 -11 -95 -17 -30 -6 -86 -14
-125 -18 -38 -4 -75 -11 -81 -14 -10 -7 -96 -19 -146 -21 -9 -1 -14 -6 -11
-11 4 -5 -1 -7 -10 -3 -10 4 -30 -8 -58 -35 -23 -22 -38 -35 -34 -28 6 9 4 11
-4 6 -7 -5 -10 -11 -7 -14 9 -8 -35 -52 -45 -46 -5 3 -9 -7 -9 -21 0 -20 4
-26 15 -21 9 3 15 0 15 -9 0 -20 31 -55 42 -49 14 9 40 -18 33 -34 -4 -10 0
-12 10 -8 11 4 15 0 13 -12 -3 -19 28 -22 71 -8 22 8 21 6 -7 -20 -48 -44 -45
-55 16 -59 29 -2 59 -8 66 -14 14 -12 50 -10 62 2 4 4 21 7 38 7 l31 0 -41 21
c-43 21 -60 49 -41 68 17 17 25 13 41 -16 28 -54 53 -73 110 -85 49 -11 61
-10 103 8 39 15 53 28 71 64 25 50 34 51 75 12 18 -17 24 -29 17 -36 -16 -16
-12 -30 5 -16 12 10 23 3 65 -41 27 -28 50 -56 50 -60 0 -4 7 -15 16 -23 9 -9
17 -22 18 -29 1 -7 12 -32 24 -55 12 -24 20 -47 17 -52 -3 -4 1 -10 9 -13 8
-3 17 -19 21 -36 4 -17 10 -31 15 -31 9 0 20 -24 26 -60 3 -13 10 -30 16 -37
5 -7 11 -31 11 -53 1 -22 5 -40 9 -40 4 0 7 -12 7 -27 -1 -16 -1 -96 0 -179 1
-153 -8 -256 -34 -353 -10 -39 -11 -57 -4 -62 8 -4 8 -9 0 -14 -9 -5 -9 -10
-1 -20 9 -10 7 -21 -7 -41 -10 -16 -12 -25 -6 -21 14 9 13 -2 -19 -148 -40
-189 -136 -414 -238 -561 -27 -40 -130 -152 -230 -250 -99 -99 -178 -184 -176
-190 3 -6 -3 -11 -11 -10 -9 0 -18 -5 -21 -13 -3 -10 0 -12 11 -8 22 8 17 -14
-48 -223 -29 -96 -59 -195 -65 -220 -21 -82 -82 -273 -142 -445 -80 -229 -164
-400 -227 -466 -46 -47 -53 -51 -83 -45 -19 4 -41 18 -53 33 -21 28 -23 36
-27 95 -2 21 -6 38 -10 38 -4 0 -8 10 -8 23 0 33 -10 130 -15 144 -2 7 0 15 5
18 7 4 6 13 0 25 -7 13 -7 21 1 26 8 4 7 9 -2 15 -10 6 -11 9 -2 9 7 0 13 10
13 23 0 36 8 152 11 162 4 12 -30 100 -65 172 -14 29 -26 66 -26 83 0 35 37
97 63 106 9 3 17 10 17 15 0 5 10 9 23 9 13 0 32 8 43 18 11 9 25 18 31 19 6
1 29 14 50 29 21 14 48 30 61 35 12 5 22 14 22 21 0 9 3 8 10 -2 9 -13 14 -11
35 13 14 15 25 23 25 16 0 -7 8 -5 20 6 11 10 20 15 20 11 0 -4 18 6 39 23 21
17 43 31 48 31 6 0 22 11 36 24 14 13 29 21 32 18 3 -4 3 1 -1 11 -6 15 -9 14
-29 -9 -13 -15 -28 -23 -34 -20 -6 4 -11 3 -11 -3 0 -6 -6 -8 -14 -5 -8 3 -17
1 -20 -5 -4 -6 -12 -8 -19 -6 -15 6 -30 -4 -45 -30 -7 -12 -12 -14 -12 -6 0
10 -3 11 -14 2 -11 -9 -12 -6 -8 16 5 27 5 27 -14 9 -16 -17 -19 -17 -22 -4
-2 10 -11 14 -26 11 -18 -4 -25 1 -29 18 -6 23 -17 22 -21 -3 -1 -7 -7 -22
-14 -33 -12 -19 -13 -19 -7 3 4 14 1 28 -9 38 -14 13 -16 14 -16 0 0 -8 -5
-18 -12 -22 -6 -4 -8 -3 -4 4 3 6 -4 27 -16 48 -22 37 -22 38 -29 13 -5 -16
-7 -18 -8 -6 -1 10 -5 15 -11 12 -6 -4 -10 12 -10 41 l0 47 -21 -27 c-24 -30
-36 -29 -20 2 16 31 1 33 -25 4 -13 -15 -24 -22 -24 -15 0 6 4 14 9 17 15 10
0 44 -17 41 -10 -1 -20 3 -24 9 -5 8 -8 7 -8 -2 0 -7 -5 -18 -10 -25 -6 -7
-17 -21 -26 -32 -13 -19 -14 -18 -3 6 9 22 8 32 -6 53 -10 15 -24 25 -31 22
-13 -5 -19 11 -15 43 2 7 -2 10 -8 7 -6 -4 -13 5 -17 19 -3 14 -11 22 -17 18
-6 -4 -8 2 -5 15 4 12 2 22 -3 22 -5 0 -12 12 -15 28 -4 15 -11 30 -16 33 -5
3 -11 15 -12 25 -2 10 -9 18 -17 16 -10 -3 -10 0 1 12 9 11 9 16 1 16 -7 0 -6
9 5 25 11 17 13 25 4 25 -19 0 69 69 109 86 24 10 53 13 91 9 105 -11 160 -10
160 1 0 7 16 11 40 10 29 -1 39 3 35 12 -2 6 0 12 6 12 6 0 8 9 4 21 -5 15 -4
19 4 15 18 -12 31 36 15 58 -7 10 -10 24 -8 31 10 26 -52 51 -183 74 -87 16
-134 39 -174 85 -19 22 -28 36 -20 31 10 -5 12 -4 7 3 -4 7 -14 12 -23 12 -9
0 -13 6 -10 14 3 8 1 16 -5 18 -20 7 23 38 51 38 16 0 68 -7 117 -16 49 -9 96
-17 104 -17 42 1 240 14 272 19 22 3 61 -1 95 -11 32 -10 92 -18 133 -19 42
-1 82 -6 88 -10 22 -14 116 -20 108 -7 -4 6 -3 11 2 11 5 0 12 14 16 31 4 20
10 28 18 24 7 -4 6 -1 -3 7 -9 7 -14 19 -11 26 3 9 8 10 16 3 6 -5 17 -6 25
-2 9 6 -2 20 -38 50 -30 26 -62 64 -79 98 -26 51 -47 70 -47 41 0 -7 6 -12 14
-10 11 2 12 0 4 -10 -8 -10 -8 -20 2 -38 21 -37 18 -46 -5 -17 -11 14 -20 29
-20 34 0 4 -12 16 -26 27 l-26 18 17 -33 16 -34 -26 33 c-15 18 -30 30 -34 27
-5 -2 -17 5 -27 16 -10 11 -34 27 -52 35 -18 7 -31 18 -28 23 4 5 2 12 -4 16
-6 4 -7 11 -4 17 4 6 2 8 -3 5 -6 -4 -14 0 -17 9 -4 9 -9 14 -13 10 -4 -3 -20
6 -36 21 -27 26 -29 26 -17 5 13 -26 4 -45 -10 -22 -7 11 -8 5 -5 -18 2 -19 0
-30 -6 -26 -5 3 -7 9 -4 14 3 5 -3 14 -14 20 -24 12 -39 -4 -22 -24 7 -8 7
-23 1 -44 -5 -21 -5 -32 1 -32 6 0 8 -4 5 -8 -6 -11 25 -9 43 3 10 5 12 4 7
-3 -4 -7 -2 -12 3 -12 6 0 10 -5 8 -12 -1 -6 7 -14 18 -16 11 -2 25 -9 30 -15
15 -18 45 -17 45 2 0 10 3 12 8 5 12 -19 37 -21 50 -5 7 9 12 12 11 6 -4 -27
2 -46 12 -39 7 4 10 -3 8 -17 -1 -13 1 -32 5 -41 4 -9 6 -27 4 -40 -2 -19 -9
-23 -33 -22 -29 2 -175 65 -205 89 -28 22 -114 38 -202 36 -76 -2 -95 1 -148
25 -33 15 -60 33 -60 41 0 8 12 25 27 39 26 22 26 25 11 34 -17 10 -17 12 -1
38 17 27 17 27 -3 9 -31 -26 -38 -20 -14 13 12 16 27 30 35 30 7 0 15 7 19 15
3 8 12 15 21 15 8 0 47 16 85 35 94 48 117 95 53 109 -52 12 -89 42 -127 106
-37 63 -56 153 -35 166 5 3 6 10 3 16 -4 5 2 36 11 67 10 31 26 81 36 111 9
30 20 78 23 105 6 53 7 348 2 425 -2 25 -5 70 -6 100 -4 76 -31 127 -80 149
-22 10 -60 36 -85 59 -25 22 -45 38 -45 35 0 -3 -8 1 -17 9 -20 17 -78 33
-106 29 -9 -1 -16 3 -15 10 2 6 -3 14 -11 17 -8 3 -11 0 -7 -7 7 -10 -63 26
-74 39 -3 3 -22 14 -42 23 -21 10 -38 22 -38 28 0 6 5 7 10 4 6 -3 10 -1 10 4
0 6 3 10 8 9 7 -3 12 5 12 23 0 5 -5 7 -12 3 -7 -5 -8 -3 -3 6 12 20 15 63 5
75 -5 6 -11 30 -12 52 -2 23 -6 39 -10 36 -5 -2 -8 9 -8 24 0 16 -5 34 -12 41
-9 9 -9 12 0 12 7 0 12 7 12 15 0 13 -116 15 -988 15 -976 0 -989 0 -1007 -20z
m3943 -166 c-5 -4 -68 148 -67 162 0 5 16 -29 35 -75 19 -45 34 -85 32 -87z
m-289 -328 c7 -8 22 -11 38 -8 18 3 24 1 19 -7 -5 -7 0 -11 13 -11 14 0 19 -5
15 -15 -4 -8 -1 -15 6 -15 9 0 7 -7 -5 -20 -17 -18 -17 -20 -2 -14 18 7 23 -6
7 -22 -8 -8 -16 -34 -19 -65 -2 -19 -36 -16 -64 5 -18 13 -42 29 -54 35 -32
16 -170 41 -230 41 -28 0 -55 5 -58 10 -6 10 30 28 66 33 11 2 25 9 31 15 7 7
23 12 37 12 13 0 38 4 55 9 108 33 129 36 145 17z m532 -91 c7 -13 3 -12 -10
5 -11 14 -21 30 -21 35 0 11 14 -7 31 -40z m73 -30 c9 -14 15 -25 13 -25 -2 0
-14 11 -27 25 -13 14 -19 25 -13 25 6 0 18 -11 27 -25z m-2374 -5 c0 -5 -5
-10 -11 -10 -5 0 -7 5 -4 10 3 6 8 10 11 10 2 0 4 -4 4 -10z m2335 -16 c9 -15
12 -23 6 -20 -11 7 -35 46 -28 46 3 0 12 -12 22 -26z m-655 -5 c12 -7 11 -8
-5 -8 -11 0 -31 6 -45 14 l-25 15 30 -6 c17 -4 37 -10 45 -15z m-200 -19 c0
-5 -7 -10 -16 -10 -8 0 -12 5 -9 10 3 6 10 10 16 10 5 0 9 -4 9 -10z m58 -11
c-2 -6 -8 -10 -13 -10 -5 0 -11 4 -13 10 -2 6 4 11 13 11 9 0 15 -5 13 -11z
m187 2 c3 -5 1 -12 -5 -16 -5 -3 -10 1 -10 9 0 18 6 21 15 7z m-1609 -90 c-19
-21 -20 -31 -3 -31 6 0 19 -5 27 -10 13 -8 10 -14 -15 -35 -28 -23 -29 -24 -8
-25 42 0 58 -43 58 -155 0 -114 -13 -163 -72 -269 -61 -109 -295 -386 -326
-386 -17 0 -59 44 -50 53 3 4 2 7 -4 7 -5 0 -10 7 -11 15 -1 8 -3 22 -4 30 -1
8 -5 15 -9 15 -4 0 -11 15 -14 33 -4 17 -15 46 -25 62 -13 22 -19 53 -20 115
-2 89 7 181 18 190 4 3 20 33 36 68 16 34 34 62 39 62 5 0 7 5 5 12 -11 31
100 98 163 98 59 0 95 10 77 21 -7 5 -25 9 -40 9 -16 0 -28 6 -28 13 0 13 62
57 82 57 7 1 27 7 43 15 17 9 21 13 8 9 -12 -2 -24 -1 -27 4 -3 5 12 12 34 16
25 4 46 15 57 30 13 18 19 20 21 9 2 -8 -3 -22 -12 -32z m-271 29 c3 -5 1 -10
-4 -10 -6 0 -11 5 -11 10 0 6 2 10 4 10 3 0 8 -4 11 -10z m1325 -30 c8 -5 11
-10 5 -10 -5 0 -17 5 -25 10 -8 5 -10 10 -5 10 6 0 17 -5 25 -10z m345 0 c3
-5 -1 -10 -10 -10 -9 0 -13 5 -10 10 3 6 8 10 10 10 2 0 7 -4 10 -10z m-1556
-16 c12 -11 -12 -13 -73 -7 -41 4 -62 9 -54 14 12 8 117 1 127 -7z m-1808
-203 c-17 -34 -33 -61 -36 -61 -3 0 10 29 27 65 18 35 34 63 36 61 2 -2 -11
-31 -27 -65z m3845 -116 c7 -19 14 -44 14 -56 0 -25 -9 -21 -14 7 -3 11 -9 32
-15 47 -13 32 -13 37 -5 37 3 0 12 -16 20 -35z m497 13 c8 -13 50 -59 93 -104
44 -44 113 -118 155 -165 42 -46 120 -127 173 -179 85 -84 119 -125 84 -104
-7 4 -8 3 -4 -5 4 -6 11 -9 15 -7 4 3 28 -15 52 -41 28 -29 39 -47 31 -50 -6
-3 -9 -10 -6 -15 5 -7 2 -8 -5 -4 -7 5 -10 14 -7 21 3 8 -2 11 -15 8 -19 -5
-17 -15 9 -45 8 -10 10 -18 5 -18 -6 0 -16 7 -23 15 -7 9 -21 14 -30 13 -18
-3 -92 58 -110 91 -6 11 -43 45 -83 74 -83 62 -103 82 -88 92 13 7 44 -9 93
-48 22 -17 41 -26 49 -22 7 5 10 4 6 -2 -3 -5 9 -25 28 -43 40 -39 76 -50 72
-22 -4 25 -17 43 -27 37 -5 -3 -12 0 -15 6 -4 5 -13 8 -21 5 -7 -3 -16 0 -20
6 -5 7 -2 8 7 3 8 -4 -4 11 -26 33 -22 23 -44 41 -50 41 -5 0 4 -11 20 -24 39
-32 29 -32 -15 0 -19 14 -29 25 -22 25 23 0 12 15 -28 40 -22 14 -40 27 -40
30 0 4 -7 15 -16 26 -8 10 -12 12 -8 4 5 -8 -10 3 -32 25 -22 22 -54 53 -72
68 -18 16 -32 35 -32 42 0 7 -7 19 -16 26 -21 17 -111 135 -97 126 7 -4 14 -3
17 2 4 5 2 12 -4 16 -15 9 -32 45 -22 45 6 0 16 -10 25 -22z m-450 -252 c4
-38 4 -66 1 -64 -6 6 -34 184 -33 208 2 31 26 -78 32 -144z m799 70 c6 4 8 3
5 -3 -4 -6 3 -13 16 -17 12 -3 40 -22 63 -43 23 -21 58 -51 78 -68 20 -16 34
-35 32 -42 -3 -7 0 -15 6 -19 6 -4 8 -3 4 4 -3 6 -2 13 3 17 6 3 8 -3 6 -15
-2 -11 0 -20 5 -20 13 0 20 -29 8 -36 -6 -4 -8 -3 -4 4 3 6 -8 20 -24 32 -17
12 -29 25 -26 28 3 3 1 11 -5 18 -8 10 -16 11 -29 4 -13 -7 -21 -6 -29 4 -6 7
-8 15 -5 19 3 3 -7 12 -23 20 -27 15 -163 149 -163 162 0 4 16 -7 36 -24 19
-17 40 -28 46 -25z m-4793 -18 c-1 -13 -5 -34 -9 -48 l-8 -25 -1 28 c-1 15 -5
27 -11 27 -5 0 -10 7 -10 16 0 14 3 14 15 4 13 -11 14 -10 9 4 -3 9 -1 16 5
16 6 0 11 -10 10 -22z m4642 -105 c13 -16 12 -17 -3 -4 -10 7 -18 15 -18 17 0
8 8 3 21 -13z m310 -56 c-13 -13 -26 -3 -16 12 3 6 11 8 17 5 6 -4 6 -10 -1
-17z m-277 -56 c-2 -3 -12 3 -22 13 -16 17 -16 18 5 5 12 -7 20 -15 17 -18z
m72 -2 c4 -8 1 -8 -14 0 -12 6 -24 16 -28 22 -4 8 -1 8 14 0 12 -6 24 -16 28
-22z m169 -121 c5 4 5 1 1 -6 -6 -10 -11 -10 -22 -1 -8 6 -14 14 -14 16 0 3 6
0 13 -6 8 -6 18 -7 22 -3z m-664 -311 c-8 -21 -36 -35 -76 -35 -11 -1 -4 4 15
11 19 7 39 22 45 34 12 28 27 19 16 -10z m-4231 -71 c0 -2 -8 -10 -17 -17 -16
-13 -17 -12 -4 4 13 16 21 21 21 13z m2918 -51 c-3 -3 -9 2 -12 12 -6 14 -5
15 5 6 7 -7 10 -15 7 -18z m-85 -8 c3 -8 2 -20 -3 -26 -5 -9 -7 -4 -7 13 0 29
2 32 10 13z m234 -95 c27 -59 26 -60 -6 -10 -33 50 -38 63 -21 53 6 -4 18 -23
27 -43z m-3027 -17 c-7 -8 -17 -15 -23 -15 -6 0 -2 7 9 15 25 19 30 19 14 0z
m3078 -30 c-3 -3 -9 2 -12 12 -6 14 -5 15 5 6 7 -7 10 -15 7 -18z m-3128 0
c-7 -8 -17 -15 -23 -15 -6 0 -2 7 9 15 25 19 30 19 14 0z m1208 -278 c-29 -57
-56 -102 -60 -100 -4 2 -5 -3 -2 -11 4 -10 -6 -27 -25 -45 -17 -16 -31 -32
-31 -35 0 -9 -40 -55 -97 -112 -55 -55 -162 -136 -204 -153 -13 -6 -35 -19
-49 -28 -24 -17 -24 -17 -11 0 7 9 10 17 5 17 -4 0 8 12 27 26 19 14 33 30 31
35 -1 6 1 8 6 5 5 -3 42 29 83 71 41 42 67 73 59 68 -8 -5 14 21 49 58 35 36
68 64 73 61 5 -3 8 -2 7 3 -1 4 -1 15 0 23 1 12 3 13 10 1 6 -10 13 -6 27 18
10 17 22 31 26 31 4 0 8 6 8 14 0 7 7 19 15 26 8 7 12 16 9 21 -3 5 0 8 8 7 7
-2 12 5 12 14 -1 10 2 15 7 13 4 -3 20 12 35 35 15 22 28 40 30 40 2 0 -19
-47 -48 -103z m-633 -606 c-15 -14 -248 -131 -260 -130 -5 0 24 17 65 38 41
21 102 52 135 69 64 33 75 37 60 23z m444 -17 c-13 -14 -45 -42 -71 -61 -62
-45 -408 -205 -408 -188 0 6 106 55 237 110 95 40 211 111 242 149 8 9 16 16
19 16 3 0 -5 -12 -19 -26z m81 -17 c0 -2 -17 -19 -37 -38 l-38 -34 34 38 c33
34 41 42 41 34z m1411 -213 c-5 -16 -10 -21 -10 -12 -1 18 10 51 15 45 2 -1
-1 -16 -5 -33z m-2231 -54 c-30 -16 -59 -29 -65 -29 -5 0 15 13 45 29 30 16
60 29 65 29 6 0 -15 -13 -45 -29z m20 -154 c0 -2 -18 -15 -40 -30 -22 -14 -40
-24 -40 -22 0 5 71 56 77 56 2 0 3 -2 3 -4z m-290 -46 c-8 -5 -19 -10 -25 -10
-5 0 -3 5 5 10 8 5 20 10 25 10 6 0 3 -5 -5 -10z m865 -411 c-55 -55 -184
-145 -255 -177 -25 -11 -103 -47 -175 -80 -150 -69 -255 -105 -287 -99 -21 3
-20 5 12 19 19 8 63 25 96 38 34 13 60 29 59 34 -2 6 49 37 113 68 64 31 169
88 232 126 63 39 117 68 120 65 2 -2 -2 -9 -10 -14 -11 -8 -8 -8 10 -3 38 10
95 41 109 58 8 9 16 16 19 16 4 0 -16 -23 -43 -51z m-276 4 c-17 -23 -41 -43
-51 -43 -8 0 52 59 61 60 2 0 -3 -8 -10 -17z m34 -30 c-5 -20 -81 -81 -132
-108 -79 -40 -187 -69 -306 -81 -56 -5 -27 8 75 36 95 25 144 47 275 119 50
28 91 50 92 51 0 0 -1 -8 -4 -17z m-328 -243 c-3 -5 -12 -10 -18 -10 -7 0 -6
4 3 10 19 12 23 12 15 0z m3917 -90 c4 -58 -7 -67 -16 -12 -8 51 -8 62 3 62 5
0 11 -23 13 -50z m-3782 -40 c-8 -5 -19 -10 -25 -10 -5 0 -3 5 5 10 8 5 20 10
25 10 6 0 3 -5 -5 -10z m4179 -100 c0 -9 -4 -8 -9 5 -5 11 -9 27 -9 35 0 9 4
8 9 -5 5 -11 9 -27 9 -35z m-7 -150 c31 -68 51 -149 27 -108 -13 22 -85 206
-93 238 -6 23 25 -38 66 -130z m-4515 94 c-3 -3 -12 -4 -19 -1 -8 3 -5 6 6 6
11 1 17 -2 13 -5z m180 -229 c-20 -41 -39 -75 -43 -75 -3 0 -3 7 0 16 3 8 2
12 -4 9 -12 -7 -12 -3 -4 19 3 9 9 14 13 12 4 -3 19 20 35 50 42 81 44 57 3
-31z m4393 -30 c0 -5 -5 -3 -10 5 -5 8 -10 20 -10 25 0 6 5 3 10 -5 5 -8 10
-19 10 -25z m38 -256 c-3 -8 -7 -3 -11 10 -4 17 -3 21 5 13 5 -5 8 -16 6 -23z"/>
<path d="M2015 4220 c-16 -7 -17 -9 -3 -9 9 -1 20 4 23 9 7 11 7 11 -20 0z"/>
<path d="M4504 3951 c21 -23 26 -26 26 -11 0 5 -10 15 -22 21 -23 12 -23 12
-4 -10z"/>
<path d="M4930 3526 c0 -2 8 -10 18 -17 15 -13 16 -12 3 4 -13 16 -21 21 -21
13z"/>
<path d="M4990 3434 c0 -9 53 -54 63 -54 4 0 7 7 7 16 0 10 -5 14 -15 10 -11
-4 -15 0 -13 10 2 11 -5 18 -19 20 -13 2 -23 1 -23 -2z"/>
<path d="M4970 3385 c0 -2 15 -12 33 -20 l32 -16 -25 20 c-24 20 -40 26 -40
16z"/>
<path d="M4751 5073 c24 -27 61 -68 84 -93 22 -24 65 -71 96 -105 32 -33 87
-100 124 -150 l68 -90 -6 49 c-2 27 -9 51 -15 55 -6 3 -12 13 -14 21 -4 21
-58 82 -162 184 l-91 89 60 -40 c72 -49 139 -118 189 -193 l36 -55 0 97 c0 53
-5 109 -11 125 -7 15 -13 45 -14 65 -2 20 -11 48 -21 62 l-19 25 -174 1 -174
0 44 -47z m339 -36 c0 -5 -4 -5 -10 -2 -5 3 -10 14 -10 23 0 15 2 15 10 2 5
-8 10 -19 10 -23z"/>
<path d="M5090 5108 c1 -7 7 -24 15 -38 15 -25 15 -25 13 13 -1 23 -7 37 -15
37 -7 0 -13 -6 -13 -12z"/>
<path d="M3177 4245 c-22 -9 -25 -14 -15 -22 19 -16 172 -61 183 -55 5 3 4 7
-3 10 -7 2 -12 10 -12 18 0 8 -6 14 -14 14 -7 0 -26 10 -41 22 -33 26 -60 30
-98 13z"/>
<path d="M4520 4253 c0 -11 58 -68 64 -62 5 5 -22 38 -47 58 -9 7 -17 9 -17 4z"/>
<path d="M3390 4235 c0 -8 5 -15 10 -15 6 0 10 7 10 15 0 8 -4 15 -10 15 -5 0
-10 -7 -10 -15z"/>
<path d="M3470 4236 c0 -8 5 -18 10 -21 6 -3 10 1 10 9 0 8 -4 18 -10 21 -5 3
-10 -1 -10 -9z"/>
<path d="M3430 4230 c0 -5 7 -10 15 -10 8 0 15 5 15 10 0 6 -7 10 -15 10 -8 0
-15 -4 -15 -10z"/>
<path d="M2884 3346 c-54 -25 -80 -48 -44 -39 12 3 38 -2 60 -12 69 -31 132 7
89 54 -25 27 -42 26 -105 -3z"/>
<path d="M2670 3114 c-19 -22 -16 -64 6 -110 20 -41 53 -56 78 -34 18 14 26
80 11 80 -6 0 -19 18 -29 40 -19 43 -44 52 -66 24z"/>
<path d="M3276 2977 c3 -10 9 -15 12 -12 3 3 0 11 -7 18 -10 9 -11 8 -5 -6z"/>
<path d="M3320 2956 c0 -2 8 -10 18 -17 15 -13 16 -12 3 4 -13 16 -21 21 -21
13z"/>
<path d="M3300 2930 c6 -11 15 -18 19 -15 5 3 12 -2 15 -11 4 -9 9 -14 13 -10
7 7 -36 56 -49 56 -5 0 -4 -9 2 -20z"/>
<path d="M3363 2863 c0 -20 15 -43 29 -43 5 0 6 6 1 13 -4 6 -8 18 -8 26 0 21
-22 25 -22 4z"/>
<path d="M8 1203 c7 -3 16 -2 19 1 4 3 -2 6 -13 5 -11 0 -14 -3 -6 -6z"/>
<path d="M966 963 c-6 -14 -5 -15 5 -6 7 7 10 15 7 18 -3 3 -9 -2 -12 -12z"/>
<path d="M1142 870 c0 -14 2 -19 5 -12 2 6 2 18 0 25 -3 6 -5 1 -5 -13z"/>
<path d="M1061 634 c0 -11 3 -14 6 -6 3 7 2 16 -1 19 -3 4 -6 -2 -5 -13z"/>
<path d="M1123 630 c-13 -30 -33 -114 -29 -118 7 -6 48 118 43 130 -3 8 -8 3
-14 -12z"/>
<path d="M4921 634 c0 -11 3 -14 6 -6 3 7 2 16 -1 19 -3 4 -6 -2 -5 -13z"/>
<path d="M1042 585 c-6 -14 -8 -25 -3 -25 8 0 23 41 17 47 -1 2 -8 -8 -14 -22z"/>
<path d="M4342 535 c0 -16 3 -39 8 -50 l9 -20 -1 20 c0 11 -4 34 -8 50 l-8 30
0 -30z"/>
<path d="M4951 507 c-8 -10 4 -51 51 -167 48 -121 63 -149 70 -134 10 22 -53
190 -66 177 -4 -4 -4 0 0 10 4 12 1 17 -10 17 -9 0 -16 8 -16 18 0 15 2 15 11
2 9 -12 10 -12 5 3 -3 10 -6 21 -6 23 0 3 -4 3 -8 0 -4 -2 -9 4 -10 15 -5 56
-5 55 -21 36z m73 -173 c3 -8 2 -12 -4 -9 -6 3 -10 10 -10 16 0 14 7 11 14 -7z
m46 -114 c0 -13 -1 -13 -10 0 -5 8 -10 22 -10 30 0 13 1 13 10 0 5 -8 10 -22
10 -30z"/>
<path d="M4820 505 c0 -5 5 -17 10 -25 5 -8 10 -10 10 -5 0 6 -5 17 -10 25 -5
8 -10 11 -10 5z"/>
<path d="M4816 440 c3 -14 11 -32 16 -40 6 -10 7 -7 2 10 -3 14 -11 32 -16 40
-6 10 -7 7 -2 -10z"/>
<path d="M230 410 c0 -5 -14 -19 -31 -29 -21 -13 -26 -20 -16 -24 8 -3 24 1
35 8 10 8 21 12 24 10 2 -2 4 5 5 15 1 11 -2 22 -8 25 -5 4 -9 1 -9 -5z"/>
<path d="M4840 377 c-1 -19 95 -195 103 -190 5 3 7 0 5 -8 -3 -8 0 -21 7 -29
6 -8 25 -45 41 -83 20 -47 34 -67 46 -67 10 0 18 3 18 6 0 17 -124 233 -131
228 -5 -2 -26 30 -48 73 -22 43 -40 74 -41 70z"/>
<path d="M4521 244 c0 -11 3 -14 6 -6 3 7 2 16 -1 19 -3 4 -6 -2 -5 -13z"/>
<path d="M560 156 c0 -2 7 -9 15 -16 9 -7 15 -8 15 -2 0 5 -7 12 -15 16 -8 3
-15 4 -15 2z"/>
<path d="M587 97 c3 -15 9 -30 14 -33 14 -8 10 20 -5 41 -13 18 -14 18 -9 -8z"/>
<path d="M606 37 c3 -10 9 -15 12 -12 3 3 0 11 -7 18 -10 9 -11 8 -5 -6z"/>
<path d="M1931 31 c-8 -11 -10 -11 -5 -1 5 10 0 8 -17 -5 -13 -11 -26 -21 -28
-22 -2 -2 14 -3 36 -3 42 0 60 16 38 36 -9 9 -15 8 -24 -5z"/>
<path d="M2820 20 l-75 -18 140 0 c134 0 138 0 105 15 -53 23 -88 24 -170 3z"/>
<path d="M4716 17 c3 -10 9 -15 12 -12 3 3 0 11 -7 18 -10 9 -11 8 -5 -6z"/>
</g>
</svg>
